<svg width="512" height="449" viewBox="0 0 512 449" fill="none" xmlns="http://www.w3.org/2000/svg">
<path d="M167.506 133.773C164.813 138.437 166.411 144.401 171.075 147.094L221.747 176.349C226.411 179.042 232.375 177.444 235.068 172.78L247.555 151.152C251.308 144.651 260.692 144.651 264.445 151.152L296.436 206.561C299.129 211.225 297.53 217.189 292.866 219.882L260.876 238.352C257.859 240.094 254.141 240.094 251.124 238.352L151.572 180.875C146.907 178.182 140.943 179.78 138.25 184.445L2.6421 419.325C-4.86485 432.328 4.51877 448.581 19.5325 448.581H492.467C507.481 448.581 516.865 432.328 509.358 419.325L432.258 285.785C429.566 281.121 423.601 279.523 418.937 282.216L368.266 311.471C363.601 314.164 362.003 320.128 364.696 324.792L382.679 355.939C386.432 362.44 381.741 370.566 374.234 370.566H137.766C130.259 370.566 125.568 362.44 129.321 355.939L166.806 291.014C169.498 286.35 175.463 284.751 180.127 287.444L251.124 328.435C254.141 330.177 257.859 330.177 260.876 328.435L399.435 248.437C404.1 245.744 405.698 239.78 403.005 235.116L373.75 184.445L373.732 184.414L272.891 9.75176C265.384 -3.25057 246.616 -3.25059 239.109 9.75174L167.506 133.773Z" fill="#EEEEEE"/>
</svg>
