<svg width="1008" height="253" viewBox="0 0 1008 253" fill="none" xmlns="http://www.w3.org/2000/svg">
<path d="M152.576 45.137V0.0809937H0V45.137H47.616V181.329H104.448V45.137H152.576Z" fill="#EEEEEE"/>
<path fill-rule="evenodd" clip-rule="evenodd" d="M444.998 35.153C454.385 35.153 462.491 37.1157 469.318 41.041C476.145 44.7957 481.35 50.001 484.934 56.657V36.945H541.51V178.769C541.51 192.252 539.035 204.54 534.086 215.633C529.137 226.726 521.115 235.601 510.022 242.257C499.099 248.913 485.019 252.241 467.782 252.241C444.571 252.241 426.139 246.78 412.486 235.857C399.003 225.105 391.323 210.428 389.446 191.825H445.254C446.79 199.334 452.934 203.089 463.686 203.089C470.342 203.089 475.547 201.382 479.302 197.969C483.057 194.556 484.934 188.156 484.934 178.769V161.617C481.35 168.273 476.145 173.564 469.318 177.489C462.491 181.244 454.385 183.121 444.998 183.121C433.734 183.121 423.579 180.22 414.534 174.417C405.489 168.444 398.321 159.91 393.03 148.817C387.91 137.553 385.35 124.326 385.35 109.137C385.35 93.9477 387.91 80.8063 393.03 69.713C398.321 58.449 405.489 49.9157 414.534 44.113C423.579 38.1397 433.734 35.153 444.998 35.153ZM484.934 109.137C484.934 101.457 482.971 95.4837 479.046 91.217C475.121 86.9503 470.086 84.817 463.942 84.817C457.798 84.817 452.763 86.9503 448.838 91.217C444.913 95.4837 442.95 101.457 442.95 109.137C442.95 116.817 444.913 122.79 448.838 127.057C452.763 131.324 457.798 133.457 463.942 133.457C470.086 133.457 475.121 131.324 479.046 127.057C482.971 122.79 484.934 116.817 484.934 109.137Z" fill="#EEEEEE"/>
<path d="M232.502 63.569C238.305 55.2063 245.387 48.5503 253.75 43.601C262.113 38.481 270.817 35.921 279.862 35.921V96.593H263.734C252.982 96.593 245.046 98.4703 239.926 102.225C234.977 105.98 232.502 112.636 232.502 122.193V181.329H175.67V36.945H232.502V63.569Z" fill="#EEEEEE"/>
<path fill-rule="evenodd" clip-rule="evenodd" d="M574.71 69.713C569.59 80.8063 567.03 93.9477 567.03 109.137C567.03 124.326 569.59 137.553 574.71 148.817C580.001 159.91 587.169 168.444 596.214 174.417C605.259 180.22 615.414 183.121 626.678 183.121C636.065 183.121 644.171 181.244 650.998 177.489C657.825 173.564 663.03 168.273 666.614 161.617V181.329H723.19V36.945H666.614V56.657C663.03 50.001 657.825 44.7957 650.998 41.041C644.171 37.1157 636.065 35.153 626.678 35.153C615.414 35.153 605.259 38.1397 596.214 44.113C587.169 49.9157 580.001 58.449 574.71 69.713ZM660.726 91.217C664.651 95.4837 666.614 101.457 666.614 109.137C666.614 116.817 664.651 122.79 660.726 127.057C656.801 131.324 651.766 133.457 645.622 133.457C639.478 133.457 634.443 131.324 630.518 127.057C626.593 122.79 624.63 116.817 624.63 109.137C624.63 101.457 626.593 95.4837 630.518 91.217C634.443 86.9503 639.478 84.817 645.622 84.817C651.766 84.817 656.801 86.9503 660.726 91.217Z" fill="#EEEEEE"/>
<path d="M949.158 35.921C967.59 35.921 981.841 41.4677 991.91 52.561C1002.15 63.6543 1007.27 78.673 1007.27 97.617V181.329H950.694V104.785C950.694 98.641 948.817 93.8623 945.062 90.449C941.478 86.865 936.614 85.073 930.47 85.073C924.155 85.073 919.206 86.865 915.622 90.449C912.038 93.8623 910.246 98.641 910.246 104.785V181.329H853.67V104.785C853.67 98.641 851.793 93.8623 848.038 90.449C844.454 86.865 839.59 85.073 833.446 85.073C827.131 85.073 822.182 86.865 818.598 90.449C815.014 93.8623 813.222 98.641 813.222 104.785V181.329H756.39V36.945H813.222V56.401C817.318 50.257 822.865 45.3077 829.862 41.553C837.03 37.7983 845.393 35.921 854.95 35.921C865.361 35.921 874.577 38.225 882.598 42.833C890.619 47.2703 897.019 53.585 901.798 61.777C907.089 54.2677 913.83 48.1236 922.022 43.345C930.214 38.3957 939.259 35.921 949.158 35.921Z" fill="#EEEEEE"/>
<path d="M302.85 80.7175C311.035 84.3892 320.581 86.225 331.49 86.225C342.184 86.225 351.581 84.3984 359.682 80.7452V181.329H302.85V80.7175Z" fill="#EEEEEE"/>
<path d="M331.394 65.105C321.495 65.105 313.559 62.4597 307.586 57.169C301.613 51.8784 298.626 45.2224 298.626 37.201C298.626 29.009 301.613 22.2677 307.586 16.977C313.559 11.5157 321.495 8.78503 331.394 8.78503C341.122 8.78503 348.973 11.5157 354.946 16.977C360.919 22.2677 363.906 29.009 363.906 37.201C363.906 45.2224 360.919 51.8784 354.946 57.169C348.973 62.4597 341.122 65.105 331.394 65.105Z" fill="#EEEEEE"/>
</svg>
