<svg width="512" height="389" viewBox="0 0 512 389" fill="#5865F2" xmlns="http://www.w3.org/2000/svg">
    <path d="M433.713 32.4983C400.074 17.0976 364.562 6.17177 328.083 0C323.092 8.92347 318.575 18.1045 314.552 27.5047C275.696 21.6495 236.181 21.6495 197.325 27.5047C193.3 18.1055 188.784 8.92454 183.794 0C147.292 6.22388 111.757 17.1756 78.0841 32.5788C11.2351 131.483 -6.88664 227.931 2.17422 323.01C41.3227 351.934 85.141 373.932 131.724 388.046C142.214 373.939 151.495 358.972 159.471 343.306C144.322 337.648 129.701 330.668 115.777 322.446C119.442 319.788 123.026 317.05 126.489 314.392C167.005 333.445 211.226 343.325 255.999 343.325C300.772 343.325 344.993 333.445 385.509 314.392C389.013 317.251 392.597 319.989 396.221 322.446C382.27 330.681 367.622 337.675 352.447 343.346C360.413 359.005 369.695 373.959 380.193 388.046C426.816 373.988 470.668 352.001 509.824 323.05C520.455 212.789 491.662 117.227 433.713 32.4983ZM170.948 264.537C145.698 264.537 124.838 241.623 124.838 213.434C124.838 185.244 144.973 162.129 170.867 162.129C196.761 162.129 217.46 185.244 217.017 213.434C216.574 241.623 196.681 264.537 170.948 264.537ZM341.05 264.537C315.76 264.537 294.981 241.623 294.981 213.434C294.981 185.244 315.116 162.129 341.05 162.129C366.985 162.129 387.522 185.244 387.08 213.434C386.637 241.623 366.783 264.537 341.05 264.537Z"/>
</svg>
