<svg width="513" height="504" viewBox="0 0 513 504" fill="#171515" xmlns="http://www.w3.org/2000/svg">
    <path fill-rule="evenodd" clip-rule="evenodd" d="M256.511 0.265884C114.833 0.265884 0.299561 115.644 0.299561 258.381C0.299561 372.479 73.685 469.061 175.49 503.244C188.218 505.814 192.881 497.69 192.881 490.857C192.881 484.873 192.461 464.362 192.461 442.991C121.189 458.378 106.347 412.222 106.347 412.222C94.8935 382.308 77.9225 374.619 77.9225 374.619C54.5952 358.807 79.6217 358.807 79.6217 358.807C105.498 360.517 119.076 385.302 119.076 385.302C141.978 424.614 178.883 413.507 193.73 406.668C195.849 390.001 202.641 378.463 209.852 372.055C153.007 366.071 93.1996 343.85 93.1996 244.704C93.1996 216.499 103.374 193.424 119.495 175.477C116.952 169.069 108.041 142.568 122.044 107.1C122.044 107.1 143.677 100.262 192.456 133.595C213.34 127.945 234.877 125.071 256.511 125.047C278.145 125.047 300.198 128.041 320.562 133.595C369.346 100.262 390.979 107.1 390.979 107.1C404.981 142.568 396.066 169.069 393.522 175.477C410.069 193.424 419.823 216.499 419.823 244.704C419.823 343.85 360.016 365.641 302.746 372.055C312.081 380.173 320.137 395.555 320.137 419.915C320.137 454.529 319.717 482.309 319.717 490.852C319.717 497.69 324.385 505.814 337.108 503.25C438.913 469.056 512.298 372.479 512.298 258.381C512.718 115.644 397.765 0.265884 256.511 0.265884Z"/>
</svg>
