<svg width="513" height="448" viewBox="0 0 513 448" fill="#EEEEEE" xmlns="http://www.w3.org/2000/svg">
    <path d="M321.393 65.6523C326.94 89.1658 348.055 106.682 373.267 106.682C402.703 106.682 426.566 82.8189 426.566 53.3833C426.566 23.9477 402.703 0.0843201 373.267 0.0843201C347.53 0.0843201 326.065 18.3254 321.068 42.5886C277.964 47.2113 244.305 83.7685 244.305 128.072C244.305 128.172 244.305 128.247 244.305 128.347C197.428 130.321 154.624 143.664 120.641 164.729C108.022 154.959 92.1797 149.137 74.9881 149.137C33.7332 149.137 0.299561 182.57 0.299561 223.825C0.299561 253.76 17.891 279.548 43.3036 291.467C45.7774 378.175 140.256 447.916 256.474 447.916C372.693 447.916 467.297 378.1 469.645 291.317C494.858 279.323 512.3 253.611 512.3 223.85C512.3 182.595 478.866 149.162 437.611 149.162C420.494 149.162 404.727 154.934 392.133 164.629C357.85 143.414 314.571 130.071 267.219 128.297C267.219 128.222 267.219 128.172 267.219 128.097C267.219 96.3623 290.808 70.0252 321.393 65.7023V65.6523ZM117.642 271.227C118.892 244.14 136.883 223.35 157.798 223.35C178.712 223.35 194.705 245.315 193.455 272.401C192.206 299.488 176.588 309.333 155.649 309.333C134.709 309.333 116.393 298.314 117.642 271.227ZM355.176 223.35C376.116 223.35 394.107 244.14 395.332 271.227C396.581 298.314 378.24 309.333 357.325 309.333C336.41 309.333 320.768 299.513 319.519 272.401C318.269 245.315 334.236 223.35 355.176 223.35ZM330.288 333.896C334.212 334.296 336.71 338.369 335.186 342.017C322.317 372.777 291.932 394.392 256.474 394.392C221.017 394.392 190.657 372.777 177.763 342.017C176.239 338.369 178.737 334.296 182.661 333.896C205.649 331.573 230.512 330.298 256.474 330.298C282.437 330.298 307.275 331.573 330.288 333.896Z"/>
</svg>
