<svg width="513" height="248" viewBox="0 0 513 248" fill="#EEEEEE" xmlns="http://www.w3.org/2000/svg">
    <path d="M295.101 0.5C346.173 0.5 388.689 37.1387 397.797 85.566C407.464 81.6541 418.031 79.5 429.101 79.5C475.216 79.5 512.601 116.884 512.601 163C512.601 208.949 475.486 246.229 429.601 246.499V246.5L283.601 246.5C276.973 246.5 271.601 241.127 271.601 234.5V12.7081C271.601 7.11606 275.456 2.19103 280.998 1.44345C285.61 0.82128 290.318 0.5 295.101 0.5Z"/>
    <path d="M244.601 15.5C237.973 15.5 232.601 20.8726 232.601 27.5V235.5C232.601 242.127 237.973 247.5 244.601 247.5C251.228 247.5 256.601 242.127 256.601 235.5V27.5C256.601 20.8726 251.228 15.5 244.601 15.5Z"/>
    <path d="M167.267 63.5C160.64 63.5 155.267 68.8726 155.267 75.5V235.5C155.267 242.127 160.64 247.5 167.267 247.5C173.895 247.5 179.267 242.127 179.267 235.5V75.5C179.267 68.8726 173.895 63.5 167.267 63.5Z"/>
    <path d="M116.601 94C116.601 87.3726 121.973 82 128.601 82C135.228 82 140.601 87.3726 140.601 94V235.5C140.601 242.127 135.228 247.5 128.601 247.5C121.973 247.5 116.601 242.127 116.601 235.5V94Z"/>
    <path d="M39.6006 132.5C39.6006 125.873 44.9731 120.5 51.6006 120.5C58.228 120.5 63.6006 125.873 63.6006 132.5V232.5C63.6006 239.127 58.228 244.5 51.6006 244.5C44.9731 244.5 39.6006 239.127 39.6006 232.5V132.5Z"/>
    <path d="M0.600586 160.5C0.600586 153.873 5.97314 148.5 12.6006 148.5C19.228 148.5 24.6006 153.873 24.6006 160.5V206.5C24.6006 213.127 19.228 218.5 12.6006 218.5C5.97314 218.5 0.600586 213.127 0.600586 206.5V160.5Z"/>
    <path d="M89.9341 121.5C83.3066 121.5 77.9341 126.873 77.9341 133.5V235.5C77.9341 242.127 83.3066 247.5 89.9341 247.5C96.5615 247.5 101.934 242.127 101.934 235.5V133.5C101.934 126.873 96.5615 121.5 89.9341 121.5Z"/>
    <path d="M193.934 80.5C193.934 73.8726 199.307 68.5 205.934 68.5C212.562 68.5 217.934 73.8726 217.934 80.5V235.5C217.934 242.127 212.562 247.5 205.934 247.5C199.307 247.5 193.934 242.127 193.934 235.5V80.5Z"/>
</svg>
