<svg width="512" height="512" viewBox="0 0 512 512" fill="#EEEEEE" xmlns="http://www.w3.org/2000/svg">
    <path d="M255.601 512C396.987 512 511.601 397.385 511.601 256C511.601 114.615 396.987 0 255.601 0C120.624 0 10.0498 104.458 0.299805 236.942L133.495 291.84C137.257 289.294 141.272 287.149 145.479 285.44C155.144 281.464 165.319 279.68 175.464 280.144L238.104 189.144L238.081 187.88H237.999C237.999 134.168 281.624 90.4878 335.241 90.4878C388.96 90.5996 432.479 134.168 432.479 187.88C432.479 241.592 388.878 285.32 335.241 285.32L333.038 285.28L243.495 349.32C243.753 359.346 241.89 369.313 238.022 378.568C230.776 395.941 216.933 409.729 199.526 416.902C182.124 424.075 162.585 424.047 145.198 416.824C123.104 407.624 108.065 388.488 103.265 366.664L9.90527 328.141C41.0537 434.401 139.265 512 255.601 512Z"/>
    <path d="M151.417 401.832C179.312 413.456 211.409 400.28 223.038 372.28H222.976C228.593 358.792 228.624 343.856 223.054 330.312C217.487 316.768 207.089 306.176 193.487 300.552C180.065 294.976 165.71 295.136 153.089 299.936L185.886 313.496C195.765 317.624 203.604 325.503 207.675 335.405C211.749 345.307 211.722 356.42 207.608 366.304C205.573 371.195 202.597 375.638 198.847 379.379C195.097 383.12 190.647 386.085 185.749 388.105C180.854 390.125 175.608 391.16 170.312 391.152C165.015 391.144 159.769 390.091 154.878 388.056L123.222 374.936C129.003 387.057 139.038 396.629 151.417 401.832Z"/>
    <path fill-rule="evenodd" clip-rule="evenodd" d="M289.526 233.731C301.671 245.896 318.14 252.753 335.327 252.8C352.519 252.757 368.991 245.902 381.14 233.737C393.284 221.571 400.112 205.087 400.128 187.896C400.108 170.708 393.276 154.228 381.132 142.065C368.987 129.903 352.515 123.05 335.327 123.008C318.144 123.054 301.675 129.909 289.534 142.071C277.39 154.232 270.562 170.71 270.542 187.896C270.558 205.084 277.386 221.566 289.526 233.731ZM301.011 153.344C291.89 162.487 286.772 174.877 286.784 187.792C286.776 200.705 291.89 213.092 301.011 222.232C310.132 231.372 322.511 236.517 335.425 236.536C348.339 236.523 360.726 231.381 369.851 222.241C378.979 213.1 384.101 200.709 384.097 187.792C384.097 160.872 362.265 139.032 335.425 139.032C322.511 139.053 310.132 144.201 301.011 153.344Z"/>
</svg>
