<svg width="512" height="417" viewBox="0 0 512 417" fill="#EEEEEE" xmlns="http://www.w3.org/2000/svg">
<path d="M459.583 103.718C459.895 108.238 459.895 112.759 459.895 117.32C459.895 256.319 354.23 416.627 161.015 416.627V416.544C103.939 416.627 48.0488 400.255 0 369.385C8.29933 370.385 16.6403 370.885 25.002 370.905C72.3019 370.947 118.25 355.054 155.462 325.788C110.512 324.934 71.0955 295.584 57.3257 252.737C73.0715 255.778 89.2958 255.153 104.75 250.924C55.7449 241.009 20.4883 197.891 20.4883 147.816V146.482C35.0902 154.627 51.4392 159.147 68.1627 159.647C22.0067 128.756 7.77932 67.2657 35.6518 19.1899C88.9838 84.9088 167.671 124.861 252.142 129.089C243.676 92.5534 255.241 54.2678 282.531 28.5843C324.839 -11.2428 391.379 -9.20142 431.149 33.1461C454.674 28.501 477.222 19.8565 497.856 7.60844C490.014 31.9588 473.603 52.643 451.679 65.7868C472.5 63.3288 492.843 57.7464 512 49.2269C497.897 70.3902 480.134 88.8248 459.583 103.718Z"/>
</svg>
